<svg width="157" height="157" viewBox="0 0 157 157" fill="none" xmlns="http://www.w3.org/2000/svg">
<path d="M91.9246 60.0883H85.4849L83.6979 63.7935L83.5968 64.0293C83.1922 63.4903 82.7539 62.9963 82.2819 62.5472C81.8323 62.0756 81.3491 61.6602 80.8321 61.3009C79.9555 60.6946 78.9777 60.2343 77.8988 59.9199C76.8424 59.5831 75.6848 59.4147 74.4261 59.4147C72.2233 59.4147 70.279 59.8862 68.5933 60.8294C66.9075 61.7725 65.4914 63.0974 64.3451 64.804C63.1987 66.5106 62.3221 68.5428 61.7152 70.9006C61.1308 73.236 60.8386 75.8071 60.8386 78.6141V79.3214C60.8386 81.9487 61.1308 84.3626 61.7152 86.5633C62.3221 88.7415 63.1987 90.6165 64.3451 92.1884C65.4914 93.7827 66.8962 95.0177 68.5595 95.8935C70.2453 96.7693 72.1784 97.2071 74.3587 97.2071C75.6174 97.2071 76.775 97.05 77.8314 96.7356C78.8878 96.4437 79.8431 96.0282 80.6972 95.4893C81.3041 95.1076 81.866 94.6697 82.383 94.1757C82.9 93.6592 83.3833 93.0978 83.8328 92.4915C84.17 93.1652 84.5521 93.7715 84.9791 94.3104C85.4287 94.8269 85.9344 95.276 86.4963 95.6577C87.2606 96.1967 88.1372 96.5896 89.1262 96.8366C90.1152 97.1061 91.1941 97.2408 92.3629 97.2408C93.1496 97.2408 93.8689 97.1847 94.5207 97.0724C95.195 96.9601 95.8918 96.7244 96.6111 96.3651L95.8019 89.3253C95.5996 89.3702 95.3748 89.4151 95.1276 89.46C94.9028 89.4825 94.6443 89.4937 94.3521 89.4937C94.015 89.4937 93.7003 89.4488 93.4081 89.359C93.1384 89.2467 92.9023 89.0671 92.7001 88.82C92.4528 88.5281 92.2617 88.1239 92.1269 87.6075C91.992 87.091 91.9246 86.4398 91.9246 85.6538V60.0883ZM70.2116 79.3214V78.6141C70.2116 77.0197 70.324 75.5264 70.5488 74.1342C70.796 72.7195 71.1781 71.4845 71.6951 70.4291C72.2121 69.3737 72.8864 68.5428 73.7181 67.9365C74.5722 67.3078 75.5949 66.9934 76.7862 66.9934C77.483 66.9934 78.1236 67.0495 78.708 67.1618C79.2924 67.2741 79.8319 67.4425 80.3264 67.667C80.7759 67.8916 81.1805 68.1498 81.5401 68.4418C81.9222 68.7337 82.2594 69.0705 82.5516 69.4522V85.6538C82.5516 85.9233 82.5516 86.1928 82.5516 86.4622C82.5516 86.7092 82.5628 86.9562 82.5853 87.2033C82.3156 87.5625 82.0009 87.8881 81.6413 88.1801C81.3041 88.472 80.9108 88.7302 80.4612 88.9548C79.9667 89.2018 79.4048 89.3927 78.7754 89.5274C78.1461 89.6397 77.4605 89.6958 76.7188 89.6958C75.505 89.6958 74.4823 89.4376 73.6506 88.9211C72.8414 88.3822 72.1784 87.6524 71.6614 86.7317C71.1444 85.811 70.7735 84.7219 70.5488 83.4644C70.324 82.1845 70.2116 80.8035 70.2116 79.3214Z" fill="#FD8708"/>
</svg>
