<svg width="157" height="157" viewBox="0 0 157 157" fill="none" xmlns="http://www.w3.org/2000/svg">
<path d="M78.7754 46.9978C76.5501 46.9978 74.4598 47.3571 72.5042 48.0757C70.5487 48.7942 68.8405 49.7935 67.3794 51.0735C65.8959 52.3759 64.7271 53.9365 63.873 55.7554C63.0189 57.5743 62.5918 59.5841 62.5918 61.7847V110.288H71.9311V94.7942C72.493 95.1535 73.0662 95.4791 73.6506 95.771C74.2575 96.0404 74.8643 96.2875 75.4712 96.512C76.4378 96.8264 77.4267 97.0622 78.4382 97.2194C79.4722 97.3765 80.4836 97.4551 81.4726 97.4551C83.7653 97.4551 85.8445 97.1295 87.7101 96.4783C89.5757 95.8271 91.1603 94.8728 92.464 93.6153C93.7677 92.3802 94.7679 90.8532 95.4647 89.0344C96.184 87.193 96.5436 85.1047 96.5436 82.7693C96.5436 80.9953 96.2739 79.3785 95.7344 77.9189C95.195 76.4369 94.4083 75.1569 93.3743 74.079C92.7 73.338 91.9133 72.6868 91.0142 72.1254C90.1151 71.564 89.1149 71.0925 88.0135 70.7107C88.6878 70.3514 89.3172 69.9472 89.9016 69.4981C90.486 69.0266 91.0142 68.5326 91.4862 68.0161C92.4303 66.9831 93.1495 65.8154 93.644 64.513C94.161 63.1882 94.4195 61.7847 94.4195 60.3026C94.4195 58.2143 94.0486 56.3505 93.3069 54.7112C92.5651 53.0495 91.5199 51.6461 90.1713 50.5008C88.8002 49.3781 87.1481 48.5135 85.2151 47.9072C83.2821 47.301 81.1355 46.9978 78.7754 46.9978ZM78.6405 67.814H76.3816V74.7527H79.8206C81.0119 74.7527 82.0683 74.9436 82.9899 75.3253C83.9114 75.7071 84.6869 76.2348 85.3162 76.9084C85.9231 77.6045 86.3839 78.4466 86.6986 79.4347C87.0133 80.4002 87.1706 81.4781 87.1706 82.6682C87.1706 83.7012 86.9908 84.6668 86.6312 85.565C86.294 86.4408 85.7995 87.2042 85.1477 87.8554C84.4958 88.5066 83.6866 89.0231 82.7201 89.4049C81.7536 89.7642 80.6635 89.9438 79.4497 89.9438C78.6405 89.9438 77.8651 89.8989 77.1233 89.8091C76.404 89.6968 75.7185 89.5396 75.0666 89.3375C74.4598 89.1579 73.8866 88.9445 73.3471 88.6975C72.8302 88.4281 72.3581 88.1249 71.9311 87.7881V61.7847C71.9311 60.6844 72.0997 59.6963 72.4368 58.8206C72.7964 57.9224 73.2797 57.1589 73.8866 56.5301C74.4935 55.9014 75.2127 55.4186 76.0444 55.0818C76.8761 54.7449 77.7864 54.5765 78.7754 54.5765C79.8093 54.5765 80.7197 54.7562 81.5064 55.1154C82.2931 55.4747 82.9561 55.9463 83.4956 56.5301C84.0126 57.114 84.3947 57.7876 84.6419 58.5511C84.9117 59.3146 85.0465 60.1118 85.0465 60.9426C85.0465 62.0878 84.9117 63.1096 84.6419 64.0078C84.3722 64.906 83.9339 65.647 83.327 66.2309C82.81 66.7473 82.1582 67.1403 81.3715 67.4098C80.6073 67.6792 79.6969 67.814 78.6405 67.814Z" fill="#27AE60"/>
</svg>
