<svg width="28" height="28" viewBox="0 0 28 28" fill="none" xmlns="http://www.w3.org/2000/svg">
<path d="M22 15C22 18.1183 21.0508 20.9028 19.564 22.8853C18.0773 24.8674 16.1 26 14 26C11.9 26 9.92265 24.8674 8.43604 22.8853C6.9492 20.9028 6 18.1183 6 15C6 11.8817 6.9492 9.09717 8.43604 7.11472C9.92265 5.13257 11.9 4 14 4C16.1 4 18.0773 5.13257 19.564 7.11472C21.0508 9.09717 22 11.8817 22 15Z" fill="#FA1E1E" stroke="black" stroke-width="2"/>
<path d="M23.5937 8.25682L17.6536 13.3869C17.0057 13.9465 16 13.4862 16 12.6301L16 2.3699C16 1.51379 17.0057 1.05351 17.6536 1.61308L23.5937 6.74318C24.0556 7.14204 24.0556 7.85796 23.5937 8.25682Z" fill="#FA1E1E" stroke="black" stroke-width="2"/>
<path d="M4.40626 8.25682L10.3464 13.3869C10.9943 13.9465 12 13.4862 12 12.6301L12 2.3699C12 1.51379 10.9943 1.05351 10.3464 1.61308L4.40626 6.74318C3.94442 7.14204 3.94442 7.85796 4.40626 8.25682Z" fill="#FA1E1E" stroke="black" stroke-width="2"/>
</svg>
