<svg width="28" height="28" viewBox="0 0 28 28" fill="none" xmlns="http://www.w3.org/2000/svg">
<path d="M25 14.2056C25 16.4147 23.2091 18.2056 21 18.2056C18.7909 18.2056 17 16.4147 17 14.2056C17 11.9964 18.7909 10.2056 21 10.2056C23.2091 10.2056 25 11.9964 25 14.2056Z" fill="#27AE60" stroke="black" stroke-width="2"/>
<path d="M11 14.2056C11 16.4147 9.20914 18.2056 7 18.2056C4.79086 18.2056 3 16.4147 3 14.2056C3 11.9964 4.79086 10.2056 7 10.2056C9.20914 10.2056 11 11.9964 11 14.2056Z" fill="#27AE60" stroke="black" stroke-width="2"/>
<path d="M21 9C21 12.866 17.866 16 14 16C10.134 16 7 12.866 7 9C7 5.13401 10.134 2 14 2C17.866 2 21 5.13401 21 9Z" fill="#27AE60" stroke="black" stroke-width="2"/>
<path d="M21 19C21 22.866 17.866 26 14 26C10.134 26 7 22.866 7 19C7 15.134 10.134 12 14 12C17.866 12 21 15.134 21 19Z" fill="#27AE60" stroke="black" stroke-width="2"/>
</svg>
