<svg width="28" height="28" viewBox="0 0 28 28" fill="none" xmlns="http://www.w3.org/2000/svg">
<path d="M24.0429 9.50556C22.8354 9.17603 21.5636 9 20.2504 9C12.8871 9 6.82824 14.534 6.07953 21.6332C4.17271 19.6551 3 16.9645 3 14C3 7.92487 7.92487 3 14 3C18.4741 3 22.3243 5.67108 24.0429 9.50556Z" fill="white"/>
<path opacity="0.5" d="M14.0001 25C20.0752 25 25.0001 20.0751 25.0001 14C25.0001 12.3989 24.658 10.8778 24.043 9.50556C22.8354 9.17603 21.5637 9 20.2505 9C12.8871 9 6.8283 14.534 6.07959 21.6332C8.08039 23.7089 10.8894 25 14.0001 25Z" fill="white"/>
<path d="M6 22C6.50548 14.7385 12.7491 9 20.3769 9C21.6283 9 22.8424 9.15444 24 9.44471" stroke="black" stroke-width="2"/>
<circle cx="14" cy="14" r="11" stroke="black" stroke-width="2"/>
</svg>
